<?xml version="1.0" encoding="UTF-8" standalone="no"?><!DOCTYPE svg PUBLIC "-//W3C//DTD SVG 1.1//EN" "http://www.w3.org/Graphics/SVG/1.1/DTD/svg11.dtd"><svg width="100%" height="100%" viewBox="0 0 7226 1172" version="1.1" xmlns="http://www.w3.org/2000/svg" xmlns:xlink="http://www.w3.org/1999/xlink" xml:space="preserve" xmlns:serif="http://www.serif.com/" style="fill-rule:evenodd;clip-rule:evenodd;stroke-linejoin:round;stroke-miterlimit:2;"><rect id="Artboard1" x="0" y="-0" width="7225.36" height="1171.15" style="fill:none;"/><g id="Artboard11" serif:id="Artboard1"><path d="M4.457,1149.01l717.417,-0l-0,-193.46l-507.834,0l0,-282.129l428.834,0l-0,-195.071l-428.834,0l0,-264.395c0,-0 477.88,-0.4 507.834,-0.4l-0,-193.063l-717.417,0l0,1128.52Z" style="fill:#232020;fill-rule:nonzero;"/><path d="M929.84,586.366c0,322.433 259.559,578.768 581.992,578.768c143.483,0 282.129,-49.976 391.758,-156.381c11.284,-11.283 20.221,-24.82 20.221,-24.82l-138.129,-141.45c0,-0 -7.842,8.279 -20.737,19.562c-67.713,54.817 -149.934,91.896 -246.663,91.896c-206.358,-0 -361.125,-170.892 -361.125,-372.413c0,-203.133 153.154,-375.633 359.513,-375.633c90.283,0 180.562,35.467 248.275,95.117c12.895,12.9 20.737,20.137 20.737,20.137l139.421,-143.262c-0,-0 -8.617,-10.684 -23.125,-23.579c-109.629,-98.346 -227.317,-149.934 -390.146,-149.934c-322.433,0 -581.992,259.559 -581.992,581.992Z" style="fill:#232020;fill-rule:nonzero;"/><path d="M2185.72,1149.01l211.191,-0l0,-475.589l525.567,0l-0,475.589l209.583,-0l0,-1128.52l-209.583,0l-0,457.858l-525.567,0l0,-457.858l-211.191,0l-0,1128.52Z" style="fill:#232020;fill-rule:nonzero;"/><path d="M3420.64,586.366c0,322.433 256.338,578.768 578.767,578.768c322.417,0 580.375,-256.335 580.375,-578.768c-0,-322.433 -257.958,-581.992 -580.375,-581.992c-322.429,0 -578.767,259.559 -578.767,581.992Zm209.584,-0c-0,-203.133 166.058,-372.408 369.183,-372.408c203.125,-0 370.792,169.275 370.792,372.408c-0,203.133 -167.667,369.187 -370.792,369.187c-203.125,0 -369.183,-166.054 -369.183,-369.187Z" style="fill:#232020;fill-rule:nonzero;"/><path d="M4801.65,1149.01l220.875,-0l74.75,-530.401l305.542,530.401l249,-0l-356.25,-581.993l487.583,-546.525l-260.25,0l-407.875,473.979l66.708,-473.979l-220.875,0l-159.208,1128.52Z" style="fill:#232020;fill-rule:nonzero;"/><rect x="5981.32" y="20.496" width="211.194" height="1128.52" style="fill:#232020;"/><path d="M6729.36,1149.01l211.167,-0l-0,-935.055c-0,-0 267.917,-0.4 277.292,-0.4l-0,-193.063l-765.75,0l-0,193.063c17.708,-0 277.291,0.4 277.291,0.4l0,935.055Z" style="fill:#232020;fill-rule:nonzero;"/></g></svg>