<?xml version="1.0" encoding="UTF-8" standalone="no"?><!DOCTYPE svg PUBLIC "-//W3C//DTD SVG 1.1//EN" "http://www.w3.org/Graphics/SVG/1.1/DTD/svg11.dtd"><svg width="100%" height="100%" viewBox="0 0 957 163" version="1.1" xmlns="http://www.w3.org/2000/svg" xmlns:xlink="http://www.w3.org/1999/xlink" xml:space="preserve" xmlns:serif="http://www.serif.com/" style="fill-rule:evenodd;clip-rule:evenodd;stroke-linejoin:round;stroke-miterlimit:2;"><g><g><path d="M-0,160.509l88.592,0l-0,-23.89l-62.717,0l0,-34.84l52.958,0l0,-24.089l-52.958,-0l0,-32.649c0,-0 59.017,-0.049 62.717,-0.049l-0,-23.841l-88.592,-0l-0,139.358Z" style="fill:#3f3636;fill-rule:nonzero;"/><path d="M114.267,91.029c-0,39.817 32.058,71.471 71.875,71.471c17.716,-0 34.841,-6.172 48.375,-19.311c1.391,-1.394 2.5,-3.065 2.5,-3.065l-17.059,-17.468c0,-0 -0.966,1.022 -2.558,2.417c-8.367,6.768 -18.517,11.347 -30.467,11.347c-25.483,0 -44.591,-21.103 -44.591,-45.988c-0,-25.084 18.916,-46.387 44.391,-46.387c11.15,0 22.3,4.38 30.667,11.746c1.592,1.593 2.558,2.486 2.558,2.486l17.217,-17.69c-0,-0 -1.067,-1.319 -2.858,-2.913c-13.534,-12.144 -28.067,-18.514 -48.175,-18.514c-39.817,0 -71.875,32.053 -71.875,71.869Z" style="fill:#3f3636;fill-rule:nonzero;"/><path d="M269.358,160.509l26.075,0l0,-58.73l64.909,0l-0,58.73l25.875,0l-0,-139.358l-25.875,-0l-0,56.539l-64.909,-0l0,-56.539l-26.075,-0l0,139.358Z" style="fill:#3f3636;fill-rule:nonzero;"/><path d="M421.858,91.029c0,39.817 31.65,71.471 71.467,71.471c39.817,-0 71.675,-31.654 71.675,-71.471c0,-39.816 -31.858,-71.869 -71.675,-71.869c-39.817,0 -71.467,32.053 -71.467,71.869Zm25.875,0c0,-25.085 20.509,-45.988 45.592,-45.988c25.083,-0 45.792,20.903 45.792,45.988c-0,25.084 -20.709,45.59 -45.792,45.59c-25.083,0 -45.592,-20.506 -45.592,-45.59Z" style="fill:#3f3636;fill-rule:nonzero;"/><path d="M592.392,160.509l27.275,0l9.233,-65.498l37.733,65.498l30.75,0l-43.991,-71.869l60.208,-67.489l-32.142,-0l-50.366,58.53l8.241,-58.53l-27.275,-0l-19.666,139.358Z" style="fill:#3f3636;fill-rule:nonzero;"/><rect x="730.633" y="21.151" width="26.08" height="139.358" style="fill:#3f3636;"/><path d="M823.008,160.509l26.084,0l-0,-115.468c-0,-0 33.083,-0.049 34.241,-0.049l0,-23.841l-94.566,-0l-0,23.841c2.191,-0 34.241,0.049 34.241,0.049l0,115.468Z" style="fill:#3f3636;fill-rule:nonzero;"/></g><path d="M908.449,27.002c0,12.94 10.522,23.462 23.462,23.462c12.94,-0 23.527,-10.522 23.527,-23.462c0,-12.94 -10.587,-23.527 -23.527,-23.527c-12.94,-0 -23.462,10.587 -23.462,23.527Zm5.098,-0c-0,-10.195 8.234,-18.364 18.364,-18.364c10.195,-0 18.364,8.169 18.364,18.364c0,10.13 -8.169,18.364 -18.364,18.364c-10.13,0 -18.364,-8.234 -18.364,-18.364Zm9.607,11.915l5.685,-0l0,-8.255l3.399,-0l3.243,8.255l6.238,-0l-3.795,-8.582c2.025,-0.98 4.64,-2.941 4.64,-7.254c-0,-5.098 -3.987,-8.104 -8.039,-8.104l-11.371,0.008l-0,23.932Zm5.489,-13.091l0,-5.359l5.163,-0c1.569,-0 2.68,1.111 2.68,2.679c-0,1.503 -1.111,2.68 -2.68,2.68l-5.163,-0Z" style="fill:#3f3636;fill-rule:nonzero;"/></g></svg>