<?xml version="1.0" encoding="UTF-8" standalone="no"?>
<!DOCTYPE svg PUBLIC "-//W3C//DTD SVG 1.1//EN" "http://www.w3.org/Graphics/SVG/1.1/DTD/svg11.dtd">
<svg width="100%" height="100%" viewBox="0 0 957 154" version="1.1" xmlns="http://www.w3.org/2000/svg" xmlns:xlink="http://www.w3.org/1999/xlink" xml:space="preserve" xmlns:serif="http://www.serif.com/" style="fill-rule:evenodd;clip-rule:evenodd;stroke-linejoin:round;stroke-miterlimit:2;">
    <g transform="matrix(4.16667,0,0,4.16667,0,9.08582)">
        <path d="M0,34.008L21.262,34.008L21.262,28.274L6.21,28.274L6.21,19.913L18.92,19.913L18.92,14.131L6.21,14.131L6.21,6.295C6.21,6.295 20.374,6.284 21.262,6.284L21.262,0.562L0,0.562L0,34.008Z" style="fill:rgb(63,54,54);fill-rule:nonzero;"/>
    </g>
    <g transform="matrix(4.16667,0,0,4.16667,0,9.08582)">
        <path d="M27.424,17.333C27.424,26.889 35.118,34.486 44.674,34.486C48.926,34.486 53.036,33.004 56.284,29.851C56.618,29.516 56.884,29.115 56.884,29.115L52.79,24.923C52.79,24.923 52.558,25.168 52.176,25.503C50.168,27.127 47.732,28.226 44.864,28.226C38.748,28.226 34.162,23.162 34.162,17.189C34.162,11.169 38.702,6.056 44.816,6.056C47.492,6.056 50.168,7.108 52.176,8.875C52.558,9.258 52.79,9.472 52.79,9.472L56.922,5.226C56.922,5.226 56.666,4.91 56.236,4.527C52.988,1.613 49.5,0.084 44.674,0.084C35.118,0.084 27.424,7.777 27.424,17.333Z" style="fill:rgb(63,54,54);fill-rule:nonzero;"/>
    </g>
    <g transform="matrix(4.16667,0,0,4.16667,0,9.08582)">
        <path d="M64.646,34.008L70.904,34.008L70.904,19.913L86.482,19.913L86.482,34.008L92.692,34.008L92.692,0.562L86.482,0.562L86.482,14.131L70.904,14.131L70.904,0.562L64.646,0.562L64.646,34.008Z" style="fill:rgb(63,54,54);fill-rule:nonzero;"/>
    </g>
    <g transform="matrix(4.16667,0,0,4.16667,0,9.08582)">
        <path d="M101.246,17.333C101.246,26.889 108.842,34.486 118.398,34.486C127.954,34.486 135.6,26.889 135.6,17.333C135.6,7.777 127.954,0.084 118.398,0.084C108.842,0.084 101.246,7.777 101.246,17.333ZM107.456,17.333C107.456,11.312 112.378,6.295 118.398,6.295C124.418,6.295 129.388,11.312 129.388,17.333C129.388,23.353 124.418,28.274 118.398,28.274C112.378,28.274 107.456,23.353 107.456,17.333Z" style="fill:rgb(63,54,54);fill-rule:nonzero;"/>
    </g>
    <g transform="matrix(4.16667,0,0,4.16667,0,9.08582)">
        <path d="M142.174,34.008L148.72,34.008L150.936,18.288L159.992,34.008L167.372,34.008L156.814,16.759L171.264,0.562L163.55,0.562L151.462,14.609L153.44,0.562L146.894,0.562L142.174,34.008Z" style="fill:rgb(63,54,54);fill-rule:nonzero;"/>
    </g>
    <g transform="matrix(4.16667,0,0,4.16667,0,9.0858)">
        <rect x="175.352" y="0.562" width="6.259" height="33.446" style="fill:rgb(63,54,54);"/>
    </g>
    <g transform="matrix(4.16667,0,0,4.16667,0,9.08582)">
        <path d="M197.522,34.008L203.782,34.008L203.782,6.295C203.782,6.295 211.722,6.284 212,6.284L212,0.562L189.304,0.562L189.304,6.284C189.83,6.284 197.522,6.295 197.522,6.295L197.522,34.008Z" style="fill:rgb(63,54,54);fill-rule:nonzero;"/>
    </g>
    <g transform="matrix(4.16667,0,0,4.16667,0,-106.136)">
        <path d="M218.028,31.119C218.028,34.225 220.553,36.75 223.659,36.75C226.764,36.75 229.305,34.225 229.305,31.119C229.305,28.013 226.764,25.473 223.659,25.473C220.553,25.473 218.028,28.013 218.028,31.119ZM219.251,31.119C219.251,28.672 221.227,26.712 223.659,26.712C226.105,26.712 228.066,28.672 228.066,31.119C228.066,33.55 226.105,35.527 223.659,35.527C221.227,35.527 219.251,33.55 219.251,31.119ZM221.557,33.979L222.921,33.979L222.921,31.998L223.737,31.998L224.515,33.979L226.013,33.979L225.102,31.919C225.588,31.684 226.215,31.213 226.215,30.178C226.215,28.955 225.258,28.233 224.286,28.233L221.557,28.235L221.557,33.979ZM222.874,30.837L222.874,29.551L224.114,29.551C224.49,29.551 224.757,29.817 224.757,30.194C224.757,30.555 224.49,30.837 224.114,30.837L222.874,30.837Z" style="fill:rgb(63,54,54);fill-rule:nonzero;"/>
    </g>
</svg>
